<mxfile host="app.diagrams.net" modified="2024-07-09T10:14:27.530Z" agent="Mozilla/5.0 (Windows NT 10.0; Win64; x64; rv:127.0) Gecko/20100101 Firefox/127.0" etag="1Pb4Hm1yrmgZT_GnUNg9" version="24.4.14" type="device">
  <diagram name="PÃ¡gina-1" id="UW4RdYTZmmt3AtSpwfkM">
    <mxGraphModel dx="1674" dy="726" grid="1" gridSize="10" guides="1" tooltips="1" connect="1" arrows="1" fold="1" page="1" pageScale="1" pageWidth="827" pageHeight="1169" math="0" shadow="0">
      <root>
        <mxCell id="0" />
        <mxCell id="1" parent="0" />
        <mxCell id="B3xE5eibE2vuP5OlaklY-1" value="2" style="ellipse;whiteSpace=wrap;html=1;aspect=fixed;fillColor=#99CCFF;" vertex="1" parent="1">
          <mxGeometry x="220" y="160" width="30" height="30" as="geometry" />
        </mxCell>
        <mxCell id="B3xE5eibE2vuP5OlaklY-4" value="4" style="ellipse;whiteSpace=wrap;html=1;aspect=fixed;fillColor=#E6E6E6;" vertex="1" parent="1">
          <mxGeometry x="430" y="90" width="30" height="30" as="geometry" />
        </mxCell>
        <mxCell id="B3xE5eibE2vuP5OlaklY-5" value="3" style="ellipse;whiteSpace=wrap;html=1;aspect=fixed;fillColor=#FF6666;" vertex="1" parent="1">
          <mxGeometry x="570" y="240" width="30" height="30" as="geometry" />
        </mxCell>
        <mxCell id="B3xE5eibE2vuP5OlaklY-6" value="1" style="ellipse;whiteSpace=wrap;html=1;aspect=fixed;fillColor=#99CCFF;" vertex="1" parent="1">
          <mxGeometry x="230" y="330" width="30" height="30" as="geometry" />
        </mxCell>
        <mxCell id="B3xE5eibE2vuP5OlaklY-7" value="5" style="ellipse;whiteSpace=wrap;html=1;aspect=fixed;fillColor=#E6E6E6;" vertex="1" parent="1">
          <mxGeometry x="440" y="340" width="30" height="30" as="geometry" />
        </mxCell>
        <mxCell id="B3xE5eibE2vuP5OlaklY-8" value="" style="endArrow=none;html=1;rounded=0;" edge="1" parent="1" source="B3xE5eibE2vuP5OlaklY-1" target="B3xE5eibE2vuP5OlaklY-4">
          <mxGeometry width="50" height="50" relative="1" as="geometry">
            <mxPoint x="360" y="350" as="sourcePoint" />
            <mxPoint x="410" y="300" as="targetPoint" />
          </mxGeometry>
        </mxCell>
        <mxCell id="B3xE5eibE2vuP5OlaklY-9" value="" style="endArrow=none;html=1;rounded=0;" edge="1" parent="1" source="B3xE5eibE2vuP5OlaklY-6" target="B3xE5eibE2vuP5OlaklY-1">
          <mxGeometry width="50" height="50" relative="1" as="geometry">
            <mxPoint x="170" y="310" as="sourcePoint" />
            <mxPoint x="220" y="260" as="targetPoint" />
          </mxGeometry>
        </mxCell>
        <mxCell id="B3xE5eibE2vuP5OlaklY-10" value="" style="endArrow=none;html=1;rounded=0;" edge="1" parent="1" source="B3xE5eibE2vuP5OlaklY-6" target="B3xE5eibE2vuP5OlaklY-7">
          <mxGeometry width="50" height="50" relative="1" as="geometry">
            <mxPoint x="380" y="320" as="sourcePoint" />
            <mxPoint x="430" y="270" as="targetPoint" />
          </mxGeometry>
        </mxCell>
        <mxCell id="B3xE5eibE2vuP5OlaklY-11" value="" style="endArrow=none;html=1;rounded=0;" edge="1" parent="1" source="B3xE5eibE2vuP5OlaklY-7" target="B3xE5eibE2vuP5OlaklY-5">
          <mxGeometry width="50" height="50" relative="1" as="geometry">
            <mxPoint x="470" y="300" as="sourcePoint" />
            <mxPoint x="520" y="250" as="targetPoint" />
          </mxGeometry>
        </mxCell>
        <mxCell id="B3xE5eibE2vuP5OlaklY-12" value="" style="endArrow=none;html=1;rounded=0;" edge="1" parent="1" source="B3xE5eibE2vuP5OlaklY-4" target="B3xE5eibE2vuP5OlaklY-5">
          <mxGeometry width="50" height="50" relative="1" as="geometry">
            <mxPoint x="500" y="260" as="sourcePoint" />
            <mxPoint x="550" y="210" as="targetPoint" />
          </mxGeometry>
        </mxCell>
        <mxCell id="B3xE5eibE2vuP5OlaklY-13" value="" style="endArrow=none;html=1;rounded=0;" edge="1" parent="1" source="B3xE5eibE2vuP5OlaklY-7" target="B3xE5eibE2vuP5OlaklY-4">
          <mxGeometry width="50" height="50" relative="1" as="geometry">
            <mxPoint x="360" y="290" as="sourcePoint" />
            <mxPoint x="410" y="240" as="targetPoint" />
          </mxGeometry>
        </mxCell>
        <mxCell id="B3xE5eibE2vuP5OlaklY-14" value="" style="endArrow=none;html=1;rounded=0;" edge="1" parent="1" source="B3xE5eibE2vuP5OlaklY-1" target="B3xE5eibE2vuP5OlaklY-7">
          <mxGeometry width="50" height="50" relative="1" as="geometry">
            <mxPoint x="340" y="300" as="sourcePoint" />
            <mxPoint x="390" y="250" as="targetPoint" />
          </mxGeometry>
        </mxCell>
        <mxCell id="B3xE5eibE2vuP5OlaklY-15" value="" style="endArrow=none;html=1;rounded=0;" edge="1" parent="1" source="B3xE5eibE2vuP5OlaklY-6" target="B3xE5eibE2vuP5OlaklY-5">
          <mxGeometry width="50" height="50" relative="1" as="geometry">
            <mxPoint x="260" y="410" as="sourcePoint" />
            <mxPoint x="310" y="360" as="targetPoint" />
          </mxGeometry>
        </mxCell>
      </root>
    </mxGraphModel>
  </diagram>
</mxfile>
